<?xml version="1.0" standalone="no"?>
<!DOCTYPE svg PUBLIC "-//W3C//DTD SVG 20010904//EN"
 "http://www.w3.org/TR/2001/REC-SVG-20010904/DTD/svg10.dtd">
<svg version="1.0" xmlns="http://www.w3.org/2000/svg"
 width="350.000000pt" height="57.000000pt" viewBox="0 0 350.000000 57.000000"
 preserveAspectRatio="xMidYMid meet">

<g transform="translate(0.000000,57.000000) scale(0.100000,-0.100000)"
fill="#000000" stroke="none">
<path d="M0 285 l0 -285 93 0 c61 0 98 4 106 13 11 9 13 9 7 0 -6 -10 34 -13
182 -13 164 0 191 2 196 16 3 9 4 20 0 25 -3 5 2 9 11 9 12 0 14 -4 6 -19 -8
-14 -7 -20 3 -24 8 -3 203 -6 435 -6 l421 0 0 24 c0 17 6 25 18 25 13 0 14 -2
4 -9 -35 -22 -4 -40 65 -40 52 1 74 11 53 24 -16 10 -12 25 8 25 13 0 14 -2 4
-9 -11 -7 -10 -9 3 -15 9 -3 13 -10 10 -16 -4 -7 305 -10 934 -10 l941 0 0
160 c0 100 -4 160 -10 160 -5 0 -10 -9 -10 -20 0 -11 -4 -20 -10 -20 -5 0 -10
-7 -10 -15 0 -8 5 -15 11 -15 18 0 3 -82 -17 -97 -29 -21 -54 -16 -54 11 0 13
7 26 15 30 17 6 21 56 5 56 -5 0 -10 7 -10 15 0 8 5 15 11 15 6 0 9 10 8 23
-2 12 0 27 4 33 4 7 0 25 -8 40 -10 19 -13 43 -9 70 4 30 2 45 -10 57 -25 24
-21 57 7 57 37 0 47 -19 47 -86 0 -71 6 -94 26 -94 11 0 14 20 14 95 l0 95
-1750 0 -1750 0 0 -285z m3030 254 c0 -11 -7 -28 -16 -36 -12 -12 -14 -27 -10
-57 4 -26 1 -50 -8 -67 -12 -23 -11 -29 5 -50 20 -26 25 -49 9 -49 -5 0 -10
-7 -10 -15 0 -8 5 -15 10 -15 6 0 10 -11 10 -25 0 -14 7 -28 15 -31 8 -4 15
-17 15 -30 0 -18 -5 -24 -22 -24 -35 0 -58 29 -58 72 0 21 -4 38 -10 38 -14 0
-13 27 2 32 19 7 1 38 -22 38 -16 0 -20 7 -20 30 0 19 5 30 14 30 20 0 26 23
26 94 0 67 10 86 47 86 17 0 23 -6 23 -21z m-1990 -65 l0 -75 26 20 c56 44
161 13 179 -52 3 -12 11 -32 18 -45 8 -18 8 -28 -1 -42 -6 -11 -9 -26 -6 -35
4 -9 -7 -28 -29 -50 -30 -30 -42 -35 -80 -35 -30 0 -53 7 -71 21 l-26 20 0
-20 c0 -17 -6 -21 -30 -21 -29 0 -30 2 -30 45 0 25 -4 45 -10 45 -14 0 -12 27
3 33 10 3 10 9 0 26 -8 13 -13 61 -13 131 l0 110 35 0 35 0 0 -76z m480 11 c0
-43 1 -45 30 -45 27 0 30 -3 30 -30 0 -27 -3 -30 -30 -30 -27 0 -30 -3 -30
-30 0 -16 5 -30 10 -30 6 0 10 -9 10 -20 0 -11 -4 -20 -10 -20 -16 0 -12 -19
8 -41 11 -11 29 -18 43 -17 19 2 25 -2 27 -21 5 -30 -12 -41 -62 -41 -48 0
-76 23 -76 62 0 15 -4 28 -10 28 -14 0 -12 27 3 33 10 3 10 9 0 26 -7 11 -13
32 -13 46 0 16 -6 25 -15 25 -10 0 -15 10 -15 30 0 20 5 30 15 30 11 0 15 11
15 38 0 46 5 52 42 52 27 0 28 -2 28 -45z m-140 -10 c0 -34 -1 -35 -40 -35
-39 0 -40 1 -40 35 0 34 1 35 40 35 39 0 40 -1 40 -35z m-1124 -78 c19 -20 34
-46 34 -57 0 -11 5 -20 10 -20 6 0 10 -9 10 -20 0 -11 -5 -20 -11 -20 -6 0 -9
-8 -6 -17 6 -28 -20 -71 -53 -88 -37 -19 -113 -19 -150 0 -16 8 -37 28 -47 45
-9 16 -20 30 -24 30 -11 0 -3 104 10 128 23 43 70 64 135 59 53 -3 62 -7 92
-40z m154 21 c0 -20 1 -21 20 -3 11 10 41 20 69 23 62 6 85 -15 101 -93 9 -45
9 -59 -2 -72 -10 -13 -10 -17 0 -20 7 -3 12 -22 12 -49 0 -44 0 -44 -35 -44
-35 0 -35 0 -35 45 0 25 -4 45 -10 45 -14 0 -12 28 3 33 9 3 9 12 -2 43 -22
61 -55 71 -97 29 -21 -21 -23 -27 -12 -46 10 -17 10 -23 1 -26 -15 -6 -17 -33
-3 -33 6 0 10 -20 10 -45 0 -45 0 -45 -35 -45 -35 0 -35 0 -35 45 0 25 -4 45
-10 45 -14 0 -12 27 3 33 10 3 10 9 0 26 -7 11 -13 46 -13 76 l0 55 35 0 c29
0 35 -4 35 -22z m456 3 c32 -20 77 -101 72 -130 -3 -13 -21 -16 -116 -19 -63
-1 -112 -7 -112 -12 0 -6 6 -10 13 -10 8 0 22 -9 32 -20 22 -24 57 -26 95 -4
19 12 37 15 56 10 l29 -8 -39 -35 c-37 -34 -40 -35 -103 -31 -63 4 -67 6 -109
51 -43 47 -54 67 -34 67 6 0 6 9 1 23 -15 39 29 112 79 130 34 12 106 6 136
-12z m517 -86 c5 -33 5 -51 -2 -53 -14 -5 -14 -32 -1 -32 6 0 10 -20 10 -45 0
-45 0 -45 -35 -45 -35 0 -35 0 -35 45 0 25 -4 45 -10 45 -14 0 -12 27 3 33 10
3 10 9 0 26 -14 23 -17 64 -6 75 4 4 21 6 37 4 28 -3 31 -7 39 -53z m-1183
-289 c0 -2 -7 -7 -16 -10 -8 -3 -12 -2 -9 4 6 10 25 14 25 6z m80 -11 c0 -8
-7 -15 -15 -15 -13 0 -14 3 -3 15 16 18 18 18 18 0z m110 -15 c0 -3 -9 -6 -19
-6 -16 0 -18 4 -9 19 8 16 12 17 19 6 5 -8 9 -16 9 -19z m50 23 c0 -5 -5 -15
-10 -23 -8 -12 -10 -11 -10 8 0 12 5 22 10 22 6 0 10 -3 10 -7z m19 -24 c-19
-11 -24 -3 -8 14 8 9 16 11 18 5 2 -6 -3 -14 -10 -19z m81 3 c0 -15 -2 -15
-10 -2 -8 12 -10 12 -10 1 0 -8 -3 -12 -6 -8 -4 3 -4 13 0 22 7 20 26 10 26
-13z m107 -4 c-3 -7 -5 -2 -5 12 0 14 2 19 5 13 2 -7 2 -19 0 -25z m53 25 c0
-5 -5 -15 -10 -23 -8 -12 -10 -11 -10 8 0 12 5 22 10 22 6 0 10 -3 10 -7z m27
-30 c-3 -3 -10 -2 -16 2 -7 4 -7 10 2 20 10 11 13 11 15 -2 2 -8 1 -17 -1 -20z
m61 30 c-9 -2 -19 -12 -21 -21 -3 -12 -5 -10 -6 6 -1 17 4 22 22 21 15 -1 17
-3 5 -6z m122 -3 c0 -5 -9 -14 -20 -20 -17 -9 -20 -8 -20 10 0 13 7 20 20 20
11 0 20 -4 20 -10z m64 2 c6 -10 -5 -26 -21 -30 -7 -1 -13 7 -13 18 0 19 24
28 34 12z m73 -17 c2 -17 1 -17 -3 -2 -6 20 -31 17 -26 -2 1 -7 -2 -10 -7 -6
-15 9 -1 36 18 33 9 -2 17 -12 18 -23z m61 18 c-10 -2 -18 -12 -18 -20 0 -9
-3 -14 -6 -10 -12 11 5 37 23 36 17 -1 17 -2 1 -6z m82 -11 c0 -11 -7 -18 -20
-18 -13 0 -20 7 -20 18 0 11 7 18 20 18 13 0 20 -7 20 -18z m62 0 c4 -12 -1
-18 -13 -18 -22 0 -21 -1 -13 20 8 21 21 20 26 -2z m51 -7 c-7 -21 -13 -19
-13 6 0 11 4 18 10 14 5 -3 7 -12 3 -20z m37 7 c0 -10 -7 -19 -15 -19 -18 0
-19 9 -3 25 16 16 18 15 18 -6z m53 6 c4 -10 8 -9 17 2 10 13 11 13 7 0 -2 -8
-10 -15 -18 -15 -8 0 -17 -4 -21 -10 -4 -5 -8 0 -8 13 0 24 15 30 23 10z m167
5 c-1 -29 -40 -41 -40 -13 0 13 7 20 20 20 11 0 20 -3 20 -7z"/>
<path d="M1061 354 c-17 -21 -18 -29 -8 -46 9 -16 9 -22 0 -25 -17 -6 -16 -33
1 -33 7 0 19 -7 26 -15 7 -8 27 -15 46 -15 32 0 46 11 51 39 1 8 8 18 15 22
10 7 9 15 -6 41 -10 18 -26 39 -34 46 -27 21 -69 14 -91 -14z"/>
<path d="M106 361 c-21 -24 -31 -111 -12 -111 8 0 19 -7 26 -15 7 -8 27 -15
46 -15 32 0 46 11 51 39 1 8 8 18 15 22 10 7 9 15 -6 41 -10 18 -26 39 -34 46
-23 18 -66 15 -86 -7z"/>
<path d="M742 374 c-12 -8 -22 -24 -22 -35 0 -17 7 -19 64 -19 36 0 67 4 70 9
3 5 -4 20 -15 35 -24 30 -63 34 -97 10z"/>
</g>
</svg>
